<?xml version="1.0" encoding="utf-8"?>
<!-- Generator: Adobe Illustrator 27.0.0, SVG Export Plug-In . SVG Version: 6.00 Build 0)  -->
<svg version="1.1" id="Camada_1" xmlns="http://www.w3.org/2000/svg" xmlns:xlink="http://www.w3.org/1999/xlink" x="0px" y="0px"
	 viewBox="0 0 1920 1080" style="enable-background:new 0 0 1920 1080;" xml:space="preserve">
<style type="text/css">
	.st0{stroke:#FFFFFF;stroke-miterlimit:10;}
	.st1{stroke:#000F1F;stroke-miterlimit:10;}
	.st2{stroke:#000000;stroke-miterlimit:10;}
</style>
<g id="Camada_2_00000166654470478390384620000003658723487972165772_">
</g>
<g id="Camada_1_00000018234167086257569190000014876719685259121798_">
	<g>
		<path class="st0" d="M955.4,178.4c135.1,221.6,270.2,443.1,405.7,665.4c-2.1,0.2-3.8,0.6-5.5,0.6c-59.8,0-119.5-0.1-179.3,0.1
			c-5.3,0-7.3-3.1-9.5-6.6c-13.9-22.3-27.8-44.7-41.5-67.1c-41.5-68.1-82.8-136.2-124.2-204.3c-16.8-27.5-33.9-54.8-50.7-82.4
			c-21.5-35.4-42.7-71-64-106.5c-7.5-12.4-15-24.8-22.5-37.2c-4.8-8-4.2-12.1,3.5-19.3c3.5,5.5,7,10.8,10.4,16.3
			c10.3,16.9,20.6,33.8,30.8,50.8c5.9,9.8,11.5,19.9,17.4,29.7c8.1,13.3,16.5,26.4,24.6,39.8c14.2,23.5,28.1,47.1,42.3,70.5
			c7.4,12.2,15.2,24.1,22.8,36.2c1.5,2.4,2.8,4.9,4.3,7.3c3.2,5.2,7.2,8.3,14.1,8.3c46.9-0.3,93.9-0.1,140.8-0.2
			c2,0,4.1-0.7,6.1-1.1c-0.8-2.1-1.2-4.4-2.3-6.3c-15.8-26-31.6-51.9-47.6-77.8c-15.2-24.8-30.7-49.4-45.8-74.2
			c-9.5-15.6-18.5-31.5-27.9-47.1c-9.2-15.2-18.6-30.3-27.8-45.5c-19.7-32.6-39.3-65.2-58.9-97.8c-6.4-10.7-13-21.3-19.4-32
			C946.4,189.6,947.2,185.6,955.4,178.4z"/>
		<path class="st0" d="M828.6,383.6c2.2,3.3,4,5.7,5.5,8.2c16.5,27.1,33.1,54.3,49.5,81.5c12.4,20.5,24.6,41.1,36.9,61.6
			c2.2,3.7,2.3,7,0,10.7c-11.5,18.3-22.8,36.8-34.2,55.2c-31.3,50.8-62.7,101.7-94,152.6c-18.1,29.3-36.3,58.5-54.4,87.8
			c-1.9,3-4.1,4.5-7.7,4.2c-3.1-0.3-6.2-0.1-10.4-0.1c1.2-2.4,1.8-3.8,2.6-5.2c13.1-21.3,26.2-42.5,39.3-63.8
			c19.8-32.3,39.6-64.7,59.4-97.1c2.2-3.5,4.5-7,6.5-10.6c0.8-1.5,1.1-3.2,1.6-4.9c-1.6-0.3-3.1-0.9-4.7-0.9c-24.3,0-48.6,0-72.9,0
			c-25,0-49.9,0.1-74.9-0.1c-3.8,0-6.2,1-8.2,4.3c-14.9,24.4-29.9,48.8-45,73.1c-16.8,27.2-33.7,54.2-50.6,81.4
			c-3.2,5.2-6.5,10.5-9.6,15.8c-5.3,9-6.4,9.5-18.5,7.3C639.4,690.9,733.7,537.7,828.6,383.6z"/>
		<path class="st0" d="M1084.1,803.5c-4.5,0-8.4,0.4-12.1-0.2c-1.7-0.3-3.6-2.2-4.6-3.9c-11.5-18.7-23-37.4-34.3-56.2
			c-2.2-3.6-4.7-4.9-8.8-4.9c-44.8,0.2-89.5,0.3-134.2,0.3c-4.3,0-6.5,1.6-8.4,5.4c-8.7,17.4-17.6,34.7-26.5,52
			c-4.8,9.3-7,10.2-18.5,7.6c0.6-1.7,1-3.4,1.8-4.9c11.1-21.6,22.3-43.1,33.2-64.8c1.9-3.8,4.3-5.2,8.5-5.2
			c32.9,0.2,65.9,0.1,98.8,0.1c18.6,0,37.2,0,55.8,0.3c2.3,0,5.6,1.7,6.8,3.7c14.1,22.6,27.9,45.3,41.7,68
			C1083.6,801.3,1083.6,802,1084.1,803.5z"/>
		<path class="st0" d="M910.3,660.1c3.8-7.9,7.5-15.6,11.3-23.3c8.4-16.5,16.8-32.9,25.3-49.3c2.7-5.3,4.2-5.4,7.2-0.3
			c12,20,23.9,40,35.8,60c2.5,4.2,5.1,8.4,7.8,12.8c-4,2-5.8,0.5-7.5-2.3c-12.1-20.7-24.3-41.3-36.6-61.9c-0.8-1.3-2.2-2.2-3.3-3.2
			c-0.9,1.1-2,2.1-2.7,3.4c-10.2,20.2-20.4,40.4-30.6,60.6C915.9,659,915.1,662.3,910.3,660.1z"/>
		<path class="st0" d="M983.6,660.7c-20.2,0-40.4,0-60.7,0c-0.2-0.4-0.3-0.8-0.5-1.3c1.4-0.7,2.7-2,4.1-2c17.8-0.2,35.6-0.2,53.3,0
			c1.4,0,2.8,1.2,4.2,1.9C983.9,659.8,983.7,660.2,983.6,660.7z"/>
	</g>
	<path class="st1" d="M1681.3,822.5"/>
</g>
<path class="st2" d="M1355.6,865.5H553.8c-5,0-9-4-9-9v-1.2h819.8v1.2C1364.6,861.5,1360.6,865.5,1355.6,865.5z"/>
</svg>
